<svg xmlns="http://www.w3.org/2000/svg" width="27" height="26" fill="none"><path fill="currentColor" d="M23.375 10.937a5.6 5.6 0 0 0-.494-4.656c-1.258-2.161-3.787-3.273-6.257-2.75a5.78 5.78 0 0 0-4.332-1.906C9.767 1.62 7.527 3.223 6.751 5.594A5.74 5.74 0 0 0 2.91 8.343a5.675 5.675 0 0 0 .714 6.721 5.6 5.6 0 0 0 .494 4.656c1.258 2.16 3.787 3.273 6.257 2.75a5.78 5.78 0 0 0 4.332 1.905c2.526.006 4.767-1.6 5.544-3.971a5.74 5.74 0 0 0 3.84-2.75 5.675 5.675 0 0 0-.716-6.719zm-8.666 11.951a4.34 4.34 0 0 1-2.766-.987c.035-.018.096-.051.136-.076l4.59-2.616a.74.74 0 0 0 .378-.645v-6.386l1.94 1.105q.033.017.038.053v5.289c-.003 2.352-1.933 4.258-4.316 4.263m-9.283-3.912a4.2 4.2 0 0 1-.516-2.857l.137.08 4.59 2.617c.233.134.522.134.755 0l5.605-3.194v2.211a.07.07 0 0 1-.027.06l-4.641 2.643c-2.067 1.175-4.707.477-5.903-1.56M4.217 9.087a4.3 4.3 0 0 1 2.25-1.869l-.003.157v5.233a.74.74 0 0 0 .377.644l5.604 3.193-1.94 1.105a.07.07 0 0 1-.065.006L5.798 14.91c-2.063-1.179-2.77-3.783-1.581-5.822m15.942 3.661-5.605-3.194 1.94-1.104a.07.07 0 0 1 .066-.006l4.642 2.644c2.066 1.178 2.774 3.786 1.58 5.825a4.3 4.3 0 0 1-2.247 1.869v-5.39a.73.73 0 0 0-.375-.644M22.09 9.88l-.136-.08-4.591-2.617a.76.76 0 0 0-.754 0l-5.605 3.194V8.166a.07.07 0 0 1 .027-.06l4.64-2.641c2.068-1.177 4.71-.476 5.903 1.564.503.862.685 1.87.515 2.851zM9.95 13.82l-1.941-1.105a.07.07 0 0 1-.038-.052v-5.29c.002-2.354 1.938-4.262 4.324-4.26 1.01 0 1.987.35 2.763.986l-.137.076-4.59 2.617a.73.73 0 0 0-.378.644zm1.054-2.242 2.497-1.422 2.496 1.422v2.844L13.5 15.844l-2.497-1.422z"></path></svg>