<svg xmlns="http://www.w3.org/2000/svg" fill="none" viewBox="0 0 54 54" width="23.2"><g filter="url(#check-rossette_svg__a)"><path fill="#A2DFFD" fill-rule="evenodd" d="m33.121 12.082-1.648-1.764a6.125 6.125 0 0 0-8.95 0l-1.648 1.764a.13.13 0 0 1-.095.04l-2.413-.082a6.125 6.125 0 0 0-6.328 6.328l.082 2.412a.13.13 0 0 1-.04.096l-1.763 1.648a6.125 6.125 0 0 0 0 8.95l1.763 1.648c.026.025.04.06.04.095l-.082 2.413a6.125 6.125 0 0 0 6.328 6.328l2.413-.081a.13.13 0 0 1 .095.04l1.648 1.762a6.125 6.125 0 0 0 8.95 0l1.648-1.763a.13.13 0 0 1 .096-.04l2.412.082a6.125 6.125 0 0 0 6.328-6.328l-.081-2.413a.13.13 0 0 1 .04-.095l1.763-1.648a6.125 6.125 0 0 0 0-8.95l-1.764-1.648a.13.13 0 0 1-.04-.096l.082-2.412a6.125 6.125 0 0 0-6.328-6.328l-2.412.081a.13.13 0 0 1-.096-.04m-8.406.285a3.125 3.125 0 0 1 4.566 0l1.648 1.763a3.13 3.13 0 0 0 2.389.99l2.412-.082a3.125 3.125 0 0 1 3.23 3.229l-.083 2.412c-.03.902.33 1.773.99 2.389l1.763 1.648a3.125 3.125 0 0 1 0 4.566l-1.763 1.648a3.13 3.13 0 0 0-.99 2.389l.082 2.412a3.125 3.125 0 0 1-3.229 3.229l-2.412-.082a3.13 3.13 0 0 0-2.389.99l-1.648 1.763a3.125 3.125 0 0 1-4.566 0l-1.648-1.763a3.13 3.13 0 0 0-2.389-.99l-2.412.082a3.125 3.125 0 0 1-3.229-3.229l.082-2.412a3.13 3.13 0 0 0-.99-2.389l-1.763-1.648a3.125 3.125 0 0 1 0-4.566l1.763-1.648a3.13 3.13 0 0 0 .99-2.389l-.082-2.412a3.125 3.125 0 0 1 3.229-3.229l2.412.082c.902.03 1.773-.33 2.389-.99zm5.558 9.24a1.5 1.5 0 0 1 2.204 2.036h-.002l-.007.01-.035.037-.14.158c-.124.14-.306.348-.53.615a40 40 0 0 0-1.723 2.205c-1.339 1.845-2.788 4.188-3.484 6.406a1.5 1.5 0 0 1-2.492.611l-3.75-3.75a1.5 1.5 0 1 1 2.121-2.12l2.135 2.134c.88-1.884 2.033-3.652 3.043-5.043a43 43 0 0 1 2.433-3.046l.163-.183.045-.05.013-.014z" clip-rule="evenodd" style="fill: color(display-p3 0.6363 0.874 0.9917); fill-opacity: 1;"></path></g><defs><filter id="check-rossette_svg__a" width="52.672" height="52.672" x="0.662" y="0.663" color-interpolation-filters="sRGB" filterUnits="userSpaceOnUse"><feFlood flood-opacity="0" result="BackgroundImageFix"></feFlood><feColorMatrix in="SourceAlpha" result="hardAlpha" values="0 0 0 0 0 0 0 0 0 0 0 0 0 0 0 0 0 0 127 0"></feColorMatrix><feOffset></feOffset><feGaussianBlur stdDeviation="3.856"></feGaussianBlur><feComposite in2="hardAlpha" operator="out"></feComposite><feColorMatrix values="0 0 0 0 0.388235 0 0 0 0 0.8 0 0 0 0 1 0 0 0 0.71 0"></feColorMatrix><feBlend in2="BackgroundImageFix" result="effect1_dropShadow_2739_27959"></feBlend><feBlend in="SourceGraphic" in2="effect1_dropShadow_2739_27959" result="shape"></feBlend><feColorMatrix in="SourceAlpha" result="hardAlpha" values="0 0 0 0 0 0 0 0 0 0 0 0 0 0 0 0 0 0 127 0"></feColorMatrix><feOffset dy="-0.964"></feOffset><feGaussianBlur stdDeviation="1.928"></feGaussianBlur><feComposite in2="hardAlpha" k2="-1" k3="1" operator="arithmetic"></feComposite><feColorMatrix values="0 0 0 0 1 0 0 0 0 1 0 0 0 0 1 0 0 0 0.55 0"></feColorMatrix><feBlend in2="shape" mode="overlay" result="effect2_innerShadow_2739_27959"></feBlend><feColorMatrix in="SourceAlpha" result="hardAlpha" values="0 0 0 0 0 0 0 0 0 0 0 0 0 0 0 0 0 0 127 0"></feColorMatrix><feOffset dy="0.89"></feOffset><feGaussianBlur stdDeviation="0.482"></feGaussianBlur><feComposite in2="hardAlpha" k2="-1" k3="1" operator="arithmetic"></feComposite><feColorMatrix values="0 0 0 0 0 0 0 0 0 0 0 0 0 0 0 0 0 0 1 0"></feColorMatrix><feBlend in2="effect2_innerShadow_2739_27959" mode="overlay" result="effect3_innerShadow_2739_27959"></feBlend><feColorMatrix in="SourceAlpha" result="hardAlpha" values="0 0 0 0 0 0 0 0 0 0 0 0 0 0 0 0 0 0 127 0"></feColorMatrix><feOffset dy="-0.964"></feOffset><feGaussianBlur stdDeviation="1.928"></feGaussianBlur><feComposite in2="hardAlpha" k2="-1" k3="1" operator="arithmetic"></feComposite><feColorMatrix values="0 0 0 0 1 0 0 0 0 1 0 0 0 0 1 0 0 0 0.55 0"></feColorMatrix><feBlend in2="effect3_innerShadow_2739_27959" mode="overlay" result="effect4_innerShadow_2739_27959"></feBlend><feColorMatrix in="SourceAlpha" result="hardAlpha" values="0 0 0 0 0 0 0 0 0 0 0 0 0 0 0 0 0 0 127 0"></feColorMatrix><feOffset dy="0.89"></feOffset><feGaussianBlur stdDeviation="0.482"></feGaussianBlur><feComposite in2="hardAlpha" k2="-1" k3="1" operator="arithmetic"></feComposite><feColorMatrix values="0 0 0 0 0 0 0 0 0 0 0 0 0 0 0 0 0 0 1 0"></feColorMatrix><feBlend in2="effect4_innerShadow_2739_27959" mode="overlay" result="effect5_innerShadow_2739_27959"></feBlend><feColorMatrix in="SourceAlpha" result="hardAlpha" values="0 0 0 0 0 0 0 0 0 0 0 0 0 0 0 0 0 0 127 0"></feColorMatrix><feOffset dy="0.89"></feOffset><feGaussianBlur stdDeviation="0.482"></feGaussianBlur><feComposite in2="hardAlpha" k2="-1" k3="1" operator="arithmetic"></feComposite><feColorMatrix values="0 0 0 0 0 0 0 0 0 0 0 0 0 0 0 0 0 0 1 0"></feColorMatrix><feBlend in2="effect5_innerShadow_2739_27959" mode="overlay" result="effect6_innerShadow_2739_27959"></feBlend></filter></defs></svg>